STARTFONT 2.1
FONT -Monotype-Arial-Bold-R-Normal--25-180-100-100-P-130-iso8859-5
SIZE 18 100 100
FONTBOUNDINGBOX 28 29 -1 -6

STARTPROPERTIES 24
FOUNDRY "Monotype"
FAMILY_NAME "Arial"
WEIGHT_NAME "Bold"
SLANT "R"
SETWIDTH_NAME "Normal"
ADD_STYLE_NAME ""
PIXEL_SIZE 25
POINT_SIZE 180
RESOLUTION_X 100
RESOLUTION_Y 100
SPACING "P"
AVERAGE_WIDTH 130
CHARSET_REGISTRY "iso8859"
CHARSET_ENCODING "5"
FACE_NAME "Arial Bold ISO Latin Cyrillic"
_DEC_DEVICE_FONTNAMES "PS=arial-b-latcyrillic"
COPYRIGHT "Copyright (c) 1993 Monotype Typography Ltd."
CAP_HEIGHT 20
X_HEIGHT 15
WEIGHT 10
QUAD_WIDTH 17
DEFAULT_CHAR 160
FONT_DESCENT 6
FONT_ASCENT 23
ENDPROPERTIES

CHARS 191

STARTCHAR space
ENCODING 32
SWIDTH 278 0
DWIDTH 7 0
BBX 0 0 0 0
BITMAP
ENDCHAR

STARTCHAR exclam
ENCODING 33
SWIDTH 333 0
DWIDTH 8 0
BBX 4 18 2 0
BITMAP
F0
F0
F0
F0
F0
F0
F0
F0
60
60
60
60
60
60
00
E0
E0
E0
ENDCHAR

STARTCHAR quotedbl
ENCODING 34
SWIDTH 474 0
DWIDTH 12 0
BBX 10 7 1 11
BITMAP
F3C0
F3C0
F3C0
F3C0
F3C0
73C0
6180
ENDCHAR

STARTCHAR numbersign
ENCODING 35
SWIDTH 556 0
DWIDTH 14 0
BBX 14 19 0 -1
BITMAP
0638
0E38
0E38
0E70
0E70
FFFC
FFFC
FF7C
1CE0
1CE0
18E0
FFFC
FFFC
FFFC
39C0
31C0
71C0
7180
7380
ENDCHAR

STARTCHAR dollar
ENCODING 36
SWIDTH 556 0
DWIDTH 14 0
BBX 11 21 2 -2
BITMAP
0C00
3F00
7F80
F7C0
EDE0
EC00
EC00
FC00
7C00
7F80
1FC0
0FE0
0DE0
0CE0
ECE0
EDE0
FFC0
7FC0
3F00
0C00
0C00
ENDCHAR

STARTCHAR percent
ENCODING 37
SWIDTH 889 0
DWIDTH 22 0
BBX 20 19 1 -1
BITMAP
3C0700
7E0600
E70E00
E70C00
E71C00
E71800
E73800
7E3000
3C7000
0063C0
00E7E0
00CE70
01CE70
018E70
038E70
030E70
070670
0607E0
0E03C0
ENDCHAR

STARTCHAR ampersand
ENCODING 38
SWIDTH 722 0
DWIDTH 18 0
BBX 17 18 1 0
BITMAP
07E000
0FF000
1E7800
1C3800
1E3800
1E7800
0FF000
0FE000
1FC000
3FE400
79F700
F0FF00
F07E00
F03E00
703F00
7FFF80
3FF780
1FE300
ENDCHAR

STARTCHAR quoteright
ENCODING 39
SWIDTH 278 0
DWIDTH 7 0
BBX 3 7 2 11
BITMAP
E0
E0
E0
60
60
E0
80
ENDCHAR

STARTCHAR parenleft
ENCODING 40
SWIDTH 333 0
DWIDTH 8 0
BBX 6 24 1 -6
BITMAP
0C
1C
38
38
70
70
70
F0
E0
E0
E0
E0
E0
E0
E0
E0
F0
70
70
70
38
38
1C
0C
ENDCHAR

STARTCHAR parenright
ENCODING 41
SWIDTH 333 0
DWIDTH 8 0
BBX 6 24 1 -6
BITMAP
C0
60
70
70
38
38
38
3C
1C
1C
1C
1C
1C
1C
1C
1C
3C
38
38
38
70
70
E0
C0
ENDCHAR

STARTCHAR asterisk
ENCODING 42
SWIDTH 389 0
DWIDTH 10 0
BBX 9 9 1 9
BITMAP
1800
1800
9900
FF80
7F00
3C00
F700
6600
2200
ENDCHAR

STARTCHAR plus
ENCODING 43
SWIDTH 584 0
DWIDTH 15 0
BBX 13 13 1 2
BITMAP
0700
0700
0700
0700
0700
FFF8
FFF8
FFF8
0700
0700
0700
0700
0700
ENDCHAR

STARTCHAR comma
ENCODING 44
SWIDTH 278 0
DWIDTH 7 0
BBX 3 7 2 -4
BITMAP
E0
E0
E0
60
60
E0
C0
ENDCHAR

STARTCHAR minus
ENCODING 45
SWIDTH 584 0
DWIDTH 15 0
BBX 13 3 1 7
BITMAP
FFF8
FFF8
FFF8
ENDCHAR

STARTCHAR period
ENCODING 46
SWIDTH 278 0
DWIDTH 7 0
BBX 3 3 2 0
BITMAP
E0
E0
E0
ENDCHAR

STARTCHAR slash
ENCODING 47
SWIDTH 278 0
DWIDTH 7 0
BBX 7 19 0 -1
BITMAP
0E
0E
0C
0C
1C
1C
18
18
38
38
38
30
70
70
70
60
60
E0
E0
ENDCHAR

STARTCHAR zero
ENCODING 48
SWIDTH 556 0
DWIDTH 14 0
BBX 12 18 1 0
BITMAP
0F00
3FC0
3FC0
79E0
70E0
70F0
F0F0
F0F0
F0F0
F0F0
F0F0
F0F0
70F0
70E0
79E0
3FE0
3FC0
0F00
ENDCHAR

STARTCHAR one
ENCODING 49
SWIDTH 556 0
DWIDTH 14 0
BBX 8 18 2 0
BITMAP
07
07
0F
1F
7F
F7
E7
87
07
07
07
07
07
07
07
07
07
07
ENDCHAR

STARTCHAR two
ENCODING 50
SWIDTH 556 0
DWIDTH 14 0
BBX 12 18 0 0
BITMAP
0F80
3FE0
7FF0
78F0
7070
3070
0070
00F0
01E0
03E0
07C0
0F80
1F00
3E00
7800
7FF0
7FF0
FFF0
ENDCHAR

STARTCHAR three
ENCODING 51
SWIDTH 556 0
DWIDTH 14 0
BBX 12 18 1 0
BITMAP
0F00
3FC0
7FE0
71E0
F0E0
00E0
01E0
07C0
0780
07E0
00F0
00F0
00F0
E0F0
F1E0
7FE0
3FC0
0F00
ENDCHAR

STARTCHAR four
ENCODING 52
SWIDTH 556 0
DWIDTH 14 0
BBX 12 18 1 0
BITMAP
01C0
03C0
03C0
07C0
0FC0
1EC0
1DC0
39C0
79C0
71C0
E1C0
FFF0
FFF0
FFF0
01C0
01C0
01C0
01C0
ENDCHAR

STARTCHAR five
ENCODING 53
SWIDTH 556 0
DWIDTH 14 0
BBX 12 18 1 0
BITMAP
3FE0
3FE0
7FE0
7000
7000
7F00
7FC0
FFE0
F1E0
00F0
00F0
00F0
20F0
F0E0
F1E0
7FC0
3FC0
1F00
ENDCHAR

STARTCHAR six
ENCODING 54
SWIDTH 556 0
DWIDTH 14 0
BBX 12 18 1 0
BITMAP
0F80
1FC0
3FE0
78F0
70E0
F000
F700
F7C0
FFE0
F8F0
F070
F070
F070
7070
78F0
3FE0
1FC0
0F80
ENDCHAR

STARTCHAR seven
ENCODING 55
SWIDTH 556 0
DWIDTH 14 0
BBX 12 18 1 0
BITMAP
FFF0
FFF0
FFF0
00E0
01C0
0380
0380
0700
0700
0F00
0E00
0E00
1E00
1C00
1C00
1C00
1C00
1C00
ENDCHAR

STARTCHAR eight
ENCODING 56
SWIDTH 556 0
DWIDTH 14 0
BBX 11 18 1 0
BITMAP
1F00
7FC0
FFE0
F1E0
E0E0
E0E0
71E0
7FC0
1F80
7FC0
F1E0
E0E0
E0E0
E0E0
F1E0
7FC0
3F80
1F00
ENDCHAR

STARTCHAR nine
ENCODING 57
SWIDTH 556 0
DWIDTH 14 0
BBX 12 18 1 0
BITMAP
1F00
3FC0
7FC0
F1E0
E0E0
E0F0
E0F0
F0F0
F1F0
7FF0
3F70
0CF0
00F0
F0E0
F1E0
7FC0
3F80
1F00
ENDCHAR

STARTCHAR colon
ENCODING 58
SWIDTH 333 0
DWIDTH 8 0
BBX 3 13 3 0
BITMAP
E0
E0
E0
00
00
00
00
00
00
00
E0
E0
E0
ENDCHAR

STARTCHAR semicolon
ENCODING 59
SWIDTH 333 0
DWIDTH 8 0
BBX 3 17 3 -4
BITMAP
E0
E0
E0
00
00
00
00
00
00
00
E0
E0
E0
60
60
E0
C0
ENDCHAR

STARTCHAR less
ENCODING 60
SWIDTH 584 0
DWIDTH 15 0
BBX 12 14 1 2
BITMAP
0010
0030
01F0
07F0
1FE0
7F00
F400
F800
FE00
3FC0
07F0
01F0
0070
0010
ENDCHAR

STARTCHAR equal
ENCODING 61
SWIDTH 584 0
DWIDTH 15 0
BBX 13 8 1 5
BITMAP
FFF8
FFF8
FFF8
0000
0000
FFF8
FFF8
FFF8
ENDCHAR

STARTCHAR greater
ENCODING 62
SWIDTH 584 0
DWIDTH 15 0
BBX 12 14 1 2
BITMAP
8000
E000
F800
FE00
3FC0
07F0
0170
00F0
07F0
1FC0
FF00
FC00
F000
8000
ENDCHAR

STARTCHAR question
ENCODING 63
SWIDTH 611 0
DWIDTH 15 0
BBX 13 18 1 0
BITMAP
0F80
3FE0
7FF0
7878
F038
6038
0078
00F8
01F0
03E0
0780
0780
0700
0700
0000
0700
0700
0700
ENDCHAR

STARTCHAR at
ENCODING 64
SWIDTH 975 0
DWIDTH 24 0
BBX 24 23 1 -5
BITMAP
00FF80
03FFE0
0F80F0
1E0038
3C001C
387DCC
71FFCE
61C7C6
E38386
E78386
C70386
C7038E
C7038E
C7071C
E78F38
E3FFF8
63FBE0
70E387
38000E
1E001C
0FC1F8
03FFF0
007F80
ENDCHAR

STARTCHAR A
ENCODING 65
SWIDTH 722 0
DWIDTH 18 0
BBX 18 18 0 0
BITMAP
01E000
03E000
03F000
03F000
07B800
077800
073800
0F3C00
0E3C00
1E1E00
1E1E00
1FFF00
3FFF00
3FFF00
780780
780780
7003C0
F003C0
ENDCHAR

STARTCHAR B
ENCODING 66
SWIDTH 722 0
DWIDTH 18 0
BBX 15 18 2 0
BITMAP
FFE0
FFF8
FFF8
F03C
F03C
F03C
F038
FFE0
FFF0
FFFC
F03C
F01E
F01E
F01E
F03E
FFFC
FFF8
FFF0
ENDCHAR

STARTCHAR C
ENCODING 67
SWIDTH 722 0
DWIDTH 18 0
BBX 16 18 1 0
BITMAP
07F0
1FF8
3FFC
3C3E
781F
700C
F000
F000
F000
F000
F000
F008
780F
781E
3C3E
3FFC
1FF8
07E0
ENDCHAR

STARTCHAR D
ENCODING 68
SWIDTH 722 0
DWIDTH 18 0
BBX 15 18 2 0
BITMAP
FFC0
FFF0
FFF8
F07C
F03C
F01E
F01E
F01E
F01E
F01E
F01E
F01E
F01E
F03C
F07C
FFF8
FFF0
FFC0
ENDCHAR

STARTCHAR E
ENCODING 69
SWIDTH 667 0
DWIDTH 17 0
BBX 14 18 2 0
BITMAP
FFFC
FFFC
FFFC
F000
F000
F000
F000
FFF8
FFF8
FFF8
F000
F000
F000
F000
F000
FFFC
FFFC
FFFC
ENDCHAR

STARTCHAR F
ENCODING 70
SWIDTH 611 0
DWIDTH 15 0
BBX 13 18 2 0
BITMAP
FFF8
FFF8
FFF8
F000
F000
F000
F000
FFE0
FFE0
FFE0
F000
F000
F000
F000
F000
F000
F000
F000
ENDCHAR

STARTCHAR G
ENCODING 71
SWIDTH 778 0
DWIDTH 19 0
BBX 17 18 1 0
BITMAP
07F800
0FFE00
3FFF00
3E1F00
780F80
780400
F00000
F00000
F07F80
F07F80
F07F80
F00780
780780
7C0780
3E1F80
1FFF80
0FFE00
03F800
ENDCHAR

STARTCHAR H
ENCODING 72
SWIDTH 722 0
DWIDTH 18 0
BBX 15 18 2 0
BITMAP
F01E
F01E
F01E
F01E
F01E
F01E
F01E
FFFE
FFFE
FFFE
F01E
F01E
F01E
F01E
F01E
F01E
F01E
F01E
ENDCHAR

STARTCHAR I
ENCODING 73
SWIDTH 278 0
DWIDTH 7 0
BBX 4 18 1 0
BITMAP
F0
F0
F0
F0
F0
F0
F0
F0
F0
F0
F0
F0
F0
F0
F0
F0
F0
F0
ENDCHAR

STARTCHAR J
ENCODING 74
SWIDTH 556 0
DWIDTH 14 0
BBX 12 18 0 0
BITMAP
00F0
00F0
00F0
00F0
00F0
00F0
00F0
00F0
00F0
00F0
00F0
00F0
F0F0
F0F0
79E0
7FE0
3FC0
1F80
ENDCHAR

STARTCHAR K
ENCODING 75
SWIDTH 722 0
DWIDTH 18 0
BBX 16 18 2 0
BITMAP
F01F
F03E
F07C
F0F8
F1F0
F3E0
F780
F7C0
FFC0
FFE0
FDF0
F8F0
F078
F07C
F03C
F03E
F01F
F01F
ENDCHAR

STARTCHAR L
ENCODING 76
SWIDTH 611 0
DWIDTH 15 0
BBX 13 18 2 0
BITMAP
F000
F000
F000
F000
F000
F000
F000
F000
F000
F000
F000
F000
F000
F000
F000
FFF8
FFF8
FFF8
ENDCHAR

STARTCHAR M
ENCODING 77
SWIDTH 833 0
DWIDTH 21 0
BBX 17 18 2 0
BITMAP
F80F80
FC1F80
FC1F80
FC1F80
EC1D80
EE3B80
EE3B80
EE3B80
EF7B80
E77380
E77380
E77380
E7F380
E3E380
E3E380
E3E380
E3E380
E1C380
ENDCHAR

STARTCHAR N
ENCODING 78
SWIDTH 722 0
DWIDTH 18 0
BBX 14 18 2 0
BITMAP
F01C
F01C
F81C
F81C
FC1C
FE1C
EE1C
EF1C
E79C
E79C
E3DC
E1EC
E1FC
E0FC
E0FC
E07C
E03C
E03C
ENDCHAR

STARTCHAR O
ENCODING 79
SWIDTH 778 0
DWIDTH 19 0
BBX 18 18 1 0
BITMAP
07F800
1FFE00
3FFF00
3E1F00
780780
780780
F003C0
F003C0
F003C0
F003C0
F003C0
F003C0
780780
780780
3E1F00
3FFF00
0FFC00
03F000
ENDCHAR

STARTCHAR P
ENCODING 80
SWIDTH 667 0
DWIDTH 17 0
BBX 14 18 2 0
BITMAP
FFE0
FFF0
FFF8
F07C
F03C
F03C
F03C
F07C
FFF8
FFF0
FFE0
F000
F000
F000
F000
F000
F000
F000
ENDCHAR

STARTCHAR Q
ENCODING 81
SWIDTH 778 0
DWIDTH 19 0
BBX 19 19 1 -1
BITMAP
07F800
1FFE00
3FFF00
3E1F00
780780
780780
F003C0
F003C0
F003C0
F003C0
F003C0
F003C0
786780
78FF80
3E3F00
3FFF00
0FFFE0
03F3C0
0001C0
ENDCHAR

STARTCHAR R
ENCODING 82
SWIDTH 722 0
DWIDTH 18 0
BBX 16 18 2 0
BITMAP
FFF0
FFFC
FFFC
F03E
F01E
F01E
F01E
FFFC
FFF8
FFC0
F1F0
F0F0
F078
F07C
F03C
F01E
F01F
F00F
ENDCHAR

STARTCHAR S
ENCODING 83
SWIDTH 667 0
DWIDTH 17 0
BBX 15 18 1 0
BITMAP
0FE0
3FF8
7FFC
783C
703C
7800
7E00
3FC0
1FF8
07FC
00FC
001E
F01E
F01E
783C
7FFC
3FF8
0FE0
ENDCHAR

STARTCHAR T
ENCODING 84
SWIDTH 611 0
DWIDTH 15 0
BBX 14 18 1 0
BITMAP
FFFC
FFFC
FFFC
0780
0780
0780
0780
0780
0780
0780
0780
0780
0780
0780
0780
0780
0780
0780
ENDCHAR

STARTCHAR U
ENCODING 85
SWIDTH 722 0
DWIDTH 18 0
BBX 15 18 1 0
BITMAP
F01E
F01E
F01E
F01E
F01E
F01E
F01E
F01E
F01E
F01E
F01E
F01E
F01E
F01E
783C
7FFC
3FF8
0FE0
ENDCHAR

STARTCHAR V
ENCODING 86
SWIDTH 667 0
DWIDTH 17 0
BBX 17 18 0 0
BITMAP
F00780
F00F00
780F00
780F00
381E00
3C1E00
3C1C00
1E3C00
1E3C00
1E3800
0F7800
0F7800
0F7000
07F000
07E000
03E000
03E000
03C000
ENDCHAR

STARTCHAR W
ENCODING 87
SWIDTH 944 0
DWIDTH 24 0
BBX 24 18 0 0
BITMAP
F03C0F
F07C0E
707E1E
787E1E
787E1C
78F61C
38EF3C
38E73C
3DE738
3DC738
1DC7B8
1DC3B8
1FC3F0
1F83F0
0F83F0
0F81F0
0F81F0
0F01E0
ENDCHAR

STARTCHAR X
ENCODING 88
SWIDTH 667 0
DWIDTH 17 0
BBX 17 18 0 0
BITMAP
780F00
7C1E00
3C3E00
1E3C00
1F7800
0F7800
07F000
07E000
03E000
03E000
07F000
0FF000
1F7800
1E3C00
3E3C00
7C1E00
781F00
F80F80
ENDCHAR

STARTCHAR Y
ENCODING 89
SWIDTH 667 0
DWIDTH 17 0
BBX 16 18 0 0
BITMAP
F00F
F81F
781E
3C3C
3E3C
1E78
0F70
0FF0
07E0
03C0
03C0
03C0
03C0
03C0
03C0
03C0
03C0
03C0
ENDCHAR

STARTCHAR Z
ENCODING 90
SWIDTH 611 0
DWIDTH 15 0
BBX 15 18 0 0
BITMAP
7FFC
7FFC
7FBC
007C
00F8
00F0
01E0
03E0
07C0
0F80
0F00
1E00
3E00
7C00
F800
FFFE
FFFE
FFFE
ENDCHAR

STARTCHAR bracketleft
ENCODING 91
SWIDTH 333 0
DWIDTH 8 0
BBX 6 23 2 -5
BITMAP
FC
FC
FC
E0
E0
E0
E0
E0
E0
E0
E0
E0
E0
E0
E0
E0
E0
E0
E0
E0
FC
FC
FC
ENDCHAR

STARTCHAR backslash
ENCODING 92
SWIDTH 278 0
DWIDTH 7 0
BBX 7 19 0 -1
BITMAP
E0
E0
60
60
70
70
70
30
38
38
38
18
1C
1C
1C
0C
0C
0E
0E
ENDCHAR

STARTCHAR bracketright
ENCODING 93
SWIDTH 333 0
DWIDTH 8 0
BBX 6 23 0 -5
BITMAP
FC
FC
FC
1C
1C
1C
1C
1C
1C
1C
1C
1C
1C
1C
1C
1C
1C
1C
1C
1C
FC
FC
FC
ENDCHAR

STARTCHAR asciicircum
ENCODING 94
SWIDTH 584 0
DWIDTH 15 0
BBX 12 10 1 8
BITMAP
0700
0F00
0F80
1F80
1DC0
3DC0
39E0
38E0
78F0
F070
ENDCHAR

STARTCHAR underscore
ENCODING 95
SWIDTH 556 0
DWIDTH 14 0
BBX 14 2 0 -5
BITMAP
FFFC
FFFC
ENDCHAR

STARTCHAR quoteleft
ENCODING 96
SWIDTH 278 0
DWIDTH 7 0
BBX 4 7 2 11
BITMAP
70
60
C0
C0
E0
E0
E0
ENDCHAR

STARTCHAR a
ENCODING 97
SWIDTH 556 0
DWIDTH 14 0
BBX 12 13 1 0
BITMAP
1F00
7FC0
7FE0
F0E0
00E0
07E0
7FE0
F8E0
E0E0
E0E0
F3E0
FFF0
7EF0
ENDCHAR

STARTCHAR b
ENCODING 98
SWIDTH 611 0
DWIDTH 15 0
BBX 13 18 2 0
BITMAP
E000
E000
E000
E000
E000
E780
EFE0
FFF0
F0F0
F078
E078
E078
E078
F078
F0F0
FFF0
EFE0
E780
ENDCHAR

STARTCHAR c
ENCODING 99
SWIDTH 556 0
DWIDTH 14 0
BBX 12 13 1 0
BITMAP
0F80
3FE0
7FF0
78F0
F040
F000
F000
F000
7070
78F0
7FF0
3FE0
0F80
ENDCHAR

STARTCHAR d
ENCODING 100
SWIDTH 611 0
DWIDTH 15 0
BBX 13 18 1 0
BITMAP
0038
0038
0038
0038
0038
0F38
3FB8
7FF8
7878
F078
F038
F038
F038
7078
7878
7FF8
3FB8
0F38
ENDCHAR

STARTCHAR e
ENCODING 101
SWIDTH 556 0
DWIDTH 14 0
BBX 12 13 1 0
BITMAP
0F00
3FC0
7FE0
70F0
F070
FFF0
FFF0
F000
7040
78F0
3FE0
3FC0
0F80
ENDCHAR

STARTCHAR f
ENCODING 102
SWIDTH 333 0
DWIDTH 8 0
BBX 9 18 0 0
BITMAP
0F80
3F00
3F00
3800
3800
FF00
FF00
FF00
3800
3800
3800
3800
3800
3800
3800
3800
3800
3800
ENDCHAR

STARTCHAR g
ENCODING 103
SWIDTH 611 0
DWIDTH 15 0
BBX 13 18 1 -5
BITMAP
0F38
3FB8
7FF8
7878
F078
F038
F038
F038
7078
7878
7FF8
3FB8
0E38
0038
7878
7FF0
3FF0
0FC0
ENDCHAR

STARTCHAR h
ENCODING 104
SWIDTH 611 0
DWIDTH 15 0
BBX 11 18 2 0
BITMAP
E000
E000
E000
E000
E000
E780
EFC0
FFE0
F1E0
E0E0
E0E0
E0E0
E0E0
E0E0
E0E0
E0E0
E0E0
E0E0
ENDCHAR

STARTCHAR i
ENCODING 105
SWIDTH 278 0
DWIDTH 7 0
BBX 3 18 2 0
BITMAP
E0
E0
E0
00
00
E0
E0
E0
E0
E0
E0
E0
E0
E0
E0
E0
E0
E0
ENDCHAR

STARTCHAR j
ENCODING 106
SWIDTH 278 0
DWIDTH 7 0
BBX 6 23 -1 -5
BITMAP
1C
1C
1C
00
00
1C
1C
1C
1C
1C
1C
1C
1C
1C
1C
1C
1C
1C
1C
3C
FC
FC
F8
ENDCHAR

STARTCHAR k
ENCODING 107
SWIDTH 556 0
DWIDTH 14 0
BBX 12 18 2 0
BITMAP
E000
E000
E000
E000
E000
E1E0
E3C0
E780
EF00
EE00
FF00
FF00
F780
E380
E3C0
E1C0
E1E0
E0F0
ENDCHAR

STARTCHAR l
ENCODING 108
SWIDTH 278 0
DWIDTH 7 0
BBX 3 18 2 0
BITMAP
E0
E0
E0
E0
E0
E0
E0
E0
E0
E0
E0
E0
E0
E0
E0
E0
E0
E0
ENDCHAR

STARTCHAR m
ENCODING 109
SWIDTH 889 0
DWIDTH 22 0
BBX 19 13 2 0
BITMAP
E78780
EFDFC0
FFFFE0
F1F1E0
F0F0E0
E0E0E0
E0E0E0
E0E0E0
E0E0E0
E0E0E0
E0E0E0
E0E0E0
E0E0E0
ENDCHAR

STARTCHAR n
ENCODING 110
SWIDTH 611 0
DWIDTH 15 0
BBX 11 13 2 0
BITMAP
E780
EFC0
FFE0
F1E0
E0E0
E0E0
E0E0
E0E0
E0E0
E0E0
E0E0
E0E0
E0E0
ENDCHAR

STARTCHAR o
ENCODING 111
SWIDTH 611 0
DWIDTH 15 0
BBX 14 13 1 0
BITMAP
0FC0
1FE0
3FF0
7878
703C
F03C
F03C
F03C
7038
7878
3FF0
1FE0
0F80
ENDCHAR

STARTCHAR p
ENCODING 112
SWIDTH 611 0
DWIDTH 15 0
BBX 13 18 2 -5
BITMAP
E780
EFE0
FFF0
F0F0
F078
E078
E078
E078
F078
F0F0
FFF0
EFE0
E780
E000
E000
E000
E000
E000
ENDCHAR

STARTCHAR q
ENCODING 113
SWIDTH 611 0
DWIDTH 15 0
BBX 13 18 1 -5
BITMAP
0F38
3FB8
7FF8
7878
F038
F038
F038
F038
7078
7878
7FF8
3FB8
0F38
0038
0038
0038
0038
0038
ENDCHAR

STARTCHAR r
ENCODING 114
SWIDTH 389 0
DWIDTH 10 0
BBX 8 13 2 0
BITMAP
EF
EF
FF
F0
F0
E0
E0
E0
E0
E0
E0
E0
E0
ENDCHAR

STARTCHAR s
ENCODING 115
SWIDTH 556 0
DWIDTH 14 0
BBX 12 13 0 0
BITMAP
0F80
3FE0
7FF0
70E0
7800
7F80
3FE0
07F0
0070
F070
7FF0
3FE0
0F80
ENDCHAR

STARTCHAR t
ENCODING 116
SWIDTH 333 0
DWIDTH 8 0
BBX 8 17 0 0
BITMAP
08
38
38
38
FF
FF
FF
38
38
38
38
38
38
38
3F
3F
1F
ENDCHAR

STARTCHAR u
ENCODING 117
SWIDTH 611 0
DWIDTH 15 0
BBX 11 13 2 0
BITMAP
E0E0
E0E0
E0E0
E0E0
E0E0
E0E0
E0E0
E0E0
E0E0
F1E0
FFE0
7EE0
3CE0
ENDCHAR

STARTCHAR v
ENCODING 118
SWIDTH 556 0
DWIDTH 14 0
BBX 14 13 0 0
BITMAP
F03C
7038
7878
3870
38F0
3CE0
1CE0
1EE0
0EC0
0FC0
0F80
0780
0780
ENDCHAR

STARTCHAR w
ENCODING 119
SWIDTH 778 0
DWIDTH 19 0
BBX 19 13 0 0
BITMAP
E0E0E0
F0F0E0
71F1E0
71F1C0
79F9C0
39BBC0
3BBB80
3DBB80
1F9F80
1F1F00
1F1F00
0F0F00
0F0E00
ENDCHAR

STARTCHAR x
ENCODING 120
SWIDTH 556 0
DWIDTH 14 0
BBX 14 13 0 0
BITMAP
F878
78F0
3CF0
1EE0
0FC0
0F80
0780
0FC0
1FE0
1DE0
3CF0
7878
F07C
ENDCHAR

STARTCHAR y
ENCODING 121
SWIDTH 556 0
DWIDTH 14 0
BBX 14 18 0 -5
BITMAP
F03C
7038
7878
3870
3870
3CF0
1CE0
1CE0
1EC0
0FC0
0FC0
0780
0780
0780
0F00
7F00
7E00
7C00
ENDCHAR

STARTCHAR z
ENCODING 122
SWIDTH 500 0
DWIDTH 13 0
BBX 12 13 0 0
BITMAP
7FF0
7FF0
7DF0
03E0
07C0
0780
0F00
1E00
3C00
7800
FFF0
FFF0
FFF0
ENDCHAR

STARTCHAR braceleft
ENCODING 123
SWIDTH 389 0
DWIDTH 10 0
BBX 8 23 1 -5
BITMAP
0F
1F
1F
1C
1C
1C
3C
3C
38
78
F8
E0
F8
38
38
3C
3C
1C
1C
1C
1F
1F
07
ENDCHAR

STARTCHAR bar
ENCODING 124
SWIDTH 280 0
DWIDTH 7 0
BBX 3 24 2 -6
BITMAP
E0
E0
E0
E0
E0
E0
E0
E0
E0
E0
E0
E0
E0
E0
E0
E0
E0
E0
E0
E0
E0
E0
E0
E0
ENDCHAR

STARTCHAR braceright
ENCODING 125
SWIDTH 389 0
DWIDTH 10 0
BBX 8 23 1 -5
BITMAP
E0
F8
F8
38
38
38
38
38
3C
1C
1F
0F
1F
1C
3C
38
38
38
38
38
F8
F8
E0
ENDCHAR

STARTCHAR asciitilde
ENCODING 126
SWIDTH 584 0
DWIDTH 15 0
BBX 13 5 1 6
BITMAP
7C08
FF18
FFF8
87F8
81E0
ENDCHAR

STARTCHAR space
ENCODING 160
SWIDTH 278 0
DWIDTH 8 0
BBX 0 0 0 0
BITMAP
ENDCHAR

STARTCHAR afii10023
ENCODING 161
SWIDTH 667 0
DWIDTH 17 0
BBX 14 22 2 0
BITMAP
1CE0
1CE0
1CE0
0000
FFF8
FFF8
FFF8
F000
F000
F000
F000
FFF8
FFF8
FFF8
F000
F000
F000
F000
F000
FFFC
FFFC
FFFC
ENDCHAR

STARTCHAR afii10051
ENCODING 162
SWIDTH 886 0
DWIDTH 22 0
BBX 20 18 1 0
BITMAP
FFFC00
FFFC00
FFFC00
078000
078000
078000
07BF80
07FFC0
07FFE0
07E1F0
0780F0
078070
078070
0780F0
0781F0
078FE0
078FC0
078F80
ENDCHAR

STARTCHAR afii10052
ENCODING 163
SWIDTH 579 0
DWIDTH 14 0
BBX 12 22 2 0
BITMAP
07C0
0700
0E00
0000
FFF0
FFF0
FFF0
F000
F000
F000
F000
F000
F000
F000
F000
F000
F000
F000
F000
F000
F000
F000
ENDCHAR

STARTCHAR afii10053
ENCODING 164
SWIDTH 711 0
DWIDTH 18 0
BBX 16 18 1 0
BITMAP
07F0
1FF8
3FFC
3C3E
781F
780E
F000
F000
FFC0
FFC0
FFC0
F000
F00E
781F
7C3E
3FFC
1FF8
07E0
ENDCHAR

STARTCHAR afii10054
ENCODING 165
SWIDTH 667 0
DWIDTH 17 0
BBX 15 18 1 0
BITMAP
0FE0
3FF8
7FFC
783C
703C
7800
7E00
3FC0
1FF8
07FC
00FC
001E
F01E
F01E
783C
7FFC
3FF8
0FE0
ENDCHAR

STARTCHAR afii10055
ENCODING 166
SWIDTH 278 0
DWIDTH 7 0
BBX 4 18 1 0
BITMAP
F0
F0
F0
F0
F0
F0
F0
F0
F0
F0
F0
F0
F0
F0
F0
F0
F0
F0
ENDCHAR

STARTCHAR afii10056
ENCODING 167
SWIDTH 278 0
DWIDTH 7 0
BBX 8 22 -1 0
BITMAP
E7
E7
E7
00
3C
3C
3C
3C
3C
3C
3C
3C
3C
3C
3C
3C
3C
3C
3C
3C
3C
3C
ENDCHAR

STARTCHAR afii10057
ENCODING 168
SWIDTH 556 0
DWIDTH 14 0
BBX 12 18 0 0
BITMAP
00F0
00F0
00F0
00F0
00F0
00F0
00F0
00F0
00F0
00F0
00F0
00F0
F0F0
F0F0
79E0
7FE0
3FC0
1F80
ENDCHAR

STARTCHAR afii10058
ENCODING 169
SWIDTH 1122 0
DWIDTH 28 0
BBX 26 18 1 0
BITMAP
3FFE0000
3FFE0000
3FFE0000
3C1E0000
3C1E0000
3C1E0000
3C1E0000
3C1FFE00
3C1FFF00
3C1FFF80
3C1E07C0
3C1E03C0
3C1E03C0
3C1E03C0
3C1E07C0
FC1FFF80
F81FFF00
F01FFE00
ENDCHAR

STARTCHAR afii10059
ENCODING 170
SWIDTH 1079 0
DWIDTH 27 0
BBX 24 18 2 0
BITMAP
F07800
F07800
F07800
F07800
F07800
F07800
F07800
FFFFF8
FFFFFC
FFFFFE
F0781F
F0780F
F0780F
F0780F
F0781F
F07FFE
F07FFC
F07FF8
ENDCHAR

STARTCHAR afii10060
ENCODING 171
SWIDTH 860 0
DWIDTH 22 0
BBX 19 18 1 0
BITMAP
FFFC00
FFFC00
FFFC00
078000
078000
078000
07BF00
07FF80
07FFC0
07C3E0
0781E0
0781E0
0781E0
0781E0
0781E0
0781E0
0781E0
0781E0
ENDCHAR

STARTCHAR afii10061
ENCODING 172
SWIDTH 611 0
DWIDTH 15 0
BBX 13 22 2 0
BITMAP
07C0
0700
0E00
0000
F038
F0F8
F0F8
F1C0
F1C0
F380
F380
FF80
FE00
FF80
F7C0
F3C0
F1E0
F1E0
F0F0
F0F0
F078
F078
ENDCHAR

STARTCHAR hyphen
ENCODING 173
SWIDTH 333 0
DWIDTH 8 0
BBX 7 3 1 5
BITMAP
FE
FE
FE
ENDCHAR

STARTCHAR afii10062
ENCODING 174
SWIDTH 622 0
DWIDTH 16 0
BBX 16 23 0 0
BITMAP
0C18
0638
07F0
03E0
0000
F00F
781E
781E
3C3C
3C3C
1C38
1E78
0E70
0F70
0760
07E0
03E0
01C0
03C0
0380
3F80
3F00
3E00
ENDCHAR

STARTCHAR afii10145
ENCODING 175
SWIDTH 722 0
DWIDTH 18 0
BBX 15 23 2 -5
BITMAP
F01E
F01E
F01E
F01E
F01E
F01E
F01E
F01E
F01E
F01E
F01E
F01E
F01E
F01E
F01E
FFFE
FFFE
FFFE
0380
0380
0380
0380
0380
ENDCHAR

STARTCHAR afii10017
ENCODING 176
SWIDTH 722 0
DWIDTH 18 0
BBX 18 18 0 0
BITMAP
01E000
03E000
03F000
03F000
07B800
077800
073800
0F3C00
0E3C00
1E1E00
1E1E00
1FFF00
3FFF00
3FFF00
780780
780780
7003C0
F003C0
ENDCHAR

STARTCHAR afii10018
ENCODING 177
SWIDTH 719 0
DWIDTH 18 0
BBX 15 18 2 0
BITMAP
FFF8
FFF8
FFF8
F000
F000
F000
F000
FFF0
FFF8
FFFC
F03E
F01E
F01E
F01E
F03E
FFFC
FFF8
FFF0
ENDCHAR

STARTCHAR afii10019
ENCODING 178
SWIDTH 722 0
DWIDTH 18 0
BBX 15 18 2 0
BITMAP
FFE0
FFF8
FFF8
F03C
F03C
F03C
F038
FFE0
FFF0
FFFC
F03C
F01E
F01E
F01E
F03E
FFFC
FFF8
FFF0
ENDCHAR

STARTCHAR afii10020
ENCODING 179
SWIDTH 579 0
DWIDTH 14 0
BBX 12 18 2 0
BITMAP
FFF0
FFF0
FFF0
F000
F000
F000
F000
F000
F000
F000
F000
F000
F000
F000
F000
F000
F000
F000
ENDCHAR

STARTCHAR afii10021
ENCODING 180
SWIDTH 712 0
DWIDTH 18 0
BBX 17 22 0 -4
BITMAP
1FFF00
1FFF00
1FFF00
1E0F00
1E0F00
1E0F00
1E0F00
1E0F00
1E0F00
1E0F00
1C0F00
1C0F00
3C0F00
3C0F00
380F00
FFFF80
FFFF80
FFFF80
E00380
E00380
E00380
E00380
ENDCHAR

STARTCHAR afii10022
ENCODING 181
SWIDTH 667 0
DWIDTH 17 0
BBX 14 18 2 0
BITMAP
FFFC
FFFC
FFFC
F000
F000
F000
F000
FFF8
FFF8
FFF8
F000
F000
F000
F000
F000
FFFC
FFFC
FFFC
ENDCHAR

STARTCHAR afii10024
ENCODING 182
SWIDTH 904 0
DWIDTH 23 0
BBX 22 18 0 0
BITMAP
F0783C
F8787C
FC78FC
1C78E0
0E79E0
0E79C0
0F79C0
07BB80
03FF00
07FF80
0F7BC0
1E79E0
1E79E0
3C78F0
3C78F0
787878
787878
F0783C
ENDCHAR

STARTCHAR afii10025
ENCODING 183
SWIDTH 626 0
DWIDTH 16 0
BBX 14 18 1 0
BITMAP
0FC0
3FE0
7FF0
F8F8
7078
0078
0070
07C0
07E0
07F0
0078
003C
103C
F03C
F87C
7FF8
3FF0
0FC0
ENDCHAR

STARTCHAR afii10026
ENCODING 184
SWIDTH 719 0
DWIDTH 18 0
BBX 14 18 2 0
BITMAP
E03C
E03C
E07C
E07C
E0FC
E1FC
E1DC
E3DC
E39C
E79C
EF1C
EE1C
FE1C
FC1C
F81C
F81C
F01C
F01C
ENDCHAR

STARTCHAR afii10027
ENCODING 185
SWIDTH 719 0
DWIDTH 18 0
BBX 14 23 2 0
BITMAP
1860
1860
0FE0
0780
0000
E03C
E03C
E07C
E07C
E0FC
E1FC
E1DC
E3DC
E79C
E79C
EF1C
EE1C
FE1C
FC1C
F81C
F81C
F01C
F01C
ENDCHAR

STARTCHAR afii10028
ENCODING 186
SWIDTH 611 0
DWIDTH 15 0
BBX 13 18 2 0
BITMAP
F038
F0F8
F0F8
F1C0
F1C0
F380
F380
FF80
FE00
FF80
F7C0
F3C0
F1E0
F1E0
F0F0
F0F0
F078
F078
ENDCHAR

STARTCHAR afii10029
ENCODING 187
SWIDTH 702 0
DWIDTH 18 0
BBX 15 18 1 0
BITMAP
3FFE
3FFE
3FFE
3C1E
3C1E
3C1E
3C1E
3C1E
3C1E
3C1E
3C1E
3C1E
3C1E
3C1E
3C1E
FC1E
F81E
F01E
ENDCHAR

STARTCHAR afii10030
ENCODING 188
SWIDTH 833 0
DWIDTH 21 0
BBX 17 18 2 0
BITMAP
F80F80
FC1F80
FC1F80
FC1F80
EC1D80
EE3B80
EE3B80
EE3B80
EF7B80
E77380
E77380
E77380
E7F380
E3E380
E3E380
E3E380
E3E380
E1C380
ENDCHAR

STARTCHAR afii10031
ENCODING 189
SWIDTH 722 0
DWIDTH 18 0
BBX 15 18 2 0
BITMAP
F01E
F01E
F01E
F01E
F01E
F01E
F01E
FFFE
FFFE
FFFE
F01E
F01E
F01E
F01E
F01E
F01E
F01E
F01E
ENDCHAR

STARTCHAR afii10032
ENCODING 190
SWIDTH 778 0
DWIDTH 19 0
BBX 18 18 1 0
BITMAP
07F800
1FFE00
3FFF00
3E1F00
780780
780780
F003C0
F003C0
F003C0
F003C0
F003C0
F003C0
780780
780780
3E1F00
3FFF00
0FFC00
03F000
ENDCHAR

STARTCHAR afii10033
ENCODING 191
SWIDTH 722 0
DWIDTH 18 0
BBX 15 18 2 0
BITMAP
FFFE
FFFE
FFFE
F01E
F01E
F01E
F01E
F01E
F01E
F01E
F01E
F01E
F01E
F01E
F01E
F01E
F01E
F01E
ENDCHAR

STARTCHAR afii10034
ENCODING 192
SWIDTH 667 0
DWIDTH 17 0
BBX 14 18 2 0
BITMAP
FFE0
FFF0
FFF8
F07C
F03C
F03C
F03C
F07C
FFF8
FFF0
FFE0
F000
F000
F000
F000
F000
F000
F000
ENDCHAR

STARTCHAR afii10035
ENCODING 193
SWIDTH 722 0
DWIDTH 18 0
BBX 16 18 1 0
BITMAP
07F0
1FF8
3FFC
3C3E
781F
700C
F000
F000
F000
F000
F000
F008
780F
781E
3C3E
3FFC
1FF8
07E0
ENDCHAR

STARTCHAR afii10036
ENCODING 194
SWIDTH 611 0
DWIDTH 15 0
BBX 14 18 1 0
BITMAP
FFFC
FFFC
FFFC
0780
0780
0780
0780
0780
0780
0780
0780
0780
0780
0780
0780
0780
0780
0780
ENDCHAR

STARTCHAR afii10037
ENCODING 195
SWIDTH 622 0
DWIDTH 16 0
BBX 16 18 0 0
BITMAP
F00F
781E
781E
3C1C
3C3C
1C38
1E78
0E70
0F70
0760
07E0
03E0
01C0
03C0
0380
3F80
3F00
3E00
ENDCHAR

STARTCHAR afii10038
ENCODING 196
SWIDTH 853 0
DWIDTH 21 0
BBX 20 18 1 0
BITMAP
00F000
00F000
07FE00
1FFF80
3FFFC0
78F1E0
70F0E0
F0F0F0
F0F0F0
F0F0F0
F0F0F0
78F1E0
7CF3E0
3FFFC0
1FFF80
03FC00
00F000
00F000
ENDCHAR

STARTCHAR afii10039
ENCODING 197
SWIDTH 667 0
DWIDTH 17 0
BBX 17 18 0 0
BITMAP
780F00
7C1E00
3C3E00
1E3C00
1F7800
0F7800
07F000
07E000
03E000
03E000
07F000
0FF000
1F7800
1E3C00
3E3C00
7C1E00
781F00
F80F80
ENDCHAR

STARTCHAR afii10040
ENCODING 198
SWIDTH 734 0
DWIDTH 18 0
BBX 16 22 2 -4
BITMAP
F01E
F01E
F01E
F01E
F01E
F01E
F01E
F01E
F01E
F01E
F01E
F01E
F01E
F01E
F01E
FFFF
FFFF
FFFF
0007
0007
0007
0007
ENDCHAR

STARTCHAR afii10041
ENCODING 199
SWIDTH 696 0
DWIDTH 17 0
BBX 15 18 1 0
BITMAP
F01E
F01E
F01E
F01E
F01E
F01E
F01E
F01E
F83E
7FFE
3FFE
0F9E
001E
001E
001E
001E
001E
001E
ENDCHAR

STARTCHAR afii10042
ENCODING 200
SWIDTH 1004 0
DWIDTH 25 0
BBX 22 18 2 0
BITMAP
F0783C
F0783C
F0783C
F0783C
F0783C
F0783C
F0783C
F0783C
F0783C
F0783C
F0783C
F0783C
F0783C
F0783C
F0783C
FFFFFC
FFFFFC
FFFFFC
ENDCHAR

STARTCHAR afii10043
ENCODING 201
SWIDTH 1019 0
DWIDTH 25 0
BBX 23 22 2 -4
BITMAP
F0783C
F0783C
F0783C
F0783C
F0783C
F0783C
F0783C
F0783C
F0783C
F0783C
F0783C
F0783C
F0783C
F0783C
F0783C
FFFFFE
FFFFFE
FFFFFE
00000E
00000E
00000E
00000E
ENDCHAR

STARTCHAR afii10044
ENCODING 202
SWIDTH 870 0
DWIDTH 22 0
BBX 20 18 1 0
BITMAP
FF8000
FF8000
FF8000
078000
078000
078000
078000
07FF80
07FFC0
07FFE0
0781F0
0780F0
0780F0
0780F0
0781F0
07FFE0
07FFC0
07FF80
ENDCHAR

STARTCHAR afii10045
ENCODING 203
SWIDTH 979 0
DWIDTH 24 0
BBX 21 18 2 0
BITMAP
F00078
F00078
F00078
F00078
F00078
F00078
F00078
FFF078
FFF878
FFFC78
F03E78
F01E78
F01E78
F01E78
F03E78
FFFC78
FFF878
FFF078
ENDCHAR

STARTCHAR afii10046
ENCODING 204
SWIDTH 719 0
DWIDTH 18 0
BBX 15 18 2 0
BITMAP
F000
F000
F000
F000
F000
F000
F000
FFF0
FFF8
FFFC
F03E
F01E
F01E
F01E
F03E
FFFC
FFF8
FFF0
ENDCHAR

STARTCHAR afii10047
ENCODING 205
SWIDTH 711 0
DWIDTH 18 0
BBX 16 18 1 0
BITMAP
0FE0
3FF0
7FF8
7C7C
F81E
701E
000E
000F
03FF
03FF
03FF
000F
701E
F01E
783C
3FFC
3FF8
0FE0
ENDCHAR

STARTCHAR afii10048
ENCODING 206
SWIDTH 1027 0
DWIDTH 26 0
BBX 23 18 2 0
BITMAP
F01FC0
F03FF0
F07FF8
F0F07C
F1E03C
F1E01E
F1E01E
FFC01E
FFC01E
FFC01E
F1E01E
F1E01E
F1E03C
F0F03C
F0F878
F07FF8
F03FF0
F00FC0
ENDCHAR

STARTCHAR afii10049
ENCODING 207
SWIDTH 722 0
DWIDTH 18 0
BBX 16 18 0 0
BITMAP
0FFF
3FFF
3FFF
7C0F
780F
780F
7C0F
3FFF
1FFF
03FF
078F
0F0F
1E0F
3E0F
3C0F
780F
F80F
F00F
ENDCHAR

STARTCHAR afii10065
ENCODING 208
SWIDTH 556 0
DWIDTH 14 0
BBX 12 13 1 0
BITMAP
1F00
7FC0
7FE0
F0E0
00E0
07E0
7FE0
F8E0
E0E0
E1E0
F3E0
7F70
3CF0
ENDCHAR

STARTCHAR afii10066
ENCODING 209
SWIDTH 618 0
DWIDTH 15 0
BBX 14 18 1 0
BITMAP
07F8
1FF8
3FF0
7800
7000
E7C0
EFF0
FFF8
F878
F03C
F03C
F03C
F03C
7038
7878
3FF0
1FE0
0780
ENDCHAR

STARTCHAR afii10067
ENCODING 210
SWIDTH 615 0
DWIDTH 15 0
BBX 13 13 2 0
BITMAP
FFE0
FFF0
E0F0
E070
E0F0
FFC0
FFE0
E0F0
E078
E078
E0F8
FFF0
FFE0
ENDCHAR

STARTCHAR afii10068
ENCODING 211
SWIDTH 427 0
DWIDTH 11 0
BBX 9 13 2 0
BITMAP
FF80
FF80
FF80
E000
E000
E000
E000
E000
E000
E000
E000
E000
E000
ENDCHAR

STARTCHAR afii10069
ENCODING 212
SWIDTH 635 0
DWIDTH 16 0
BBX 16 16 0 -3
BITMAP
0FFC
0FFC
0FFC
0E1C
1E1C
1C1C
1C1C
1C1C
3C1C
381C
FFFF
FFFF
FFFF
E007
E007
E007
ENDCHAR

STARTCHAR afii10070
ENCODING 213
SWIDTH 556 0
DWIDTH 14 0
BBX 12 13 1 0
BITMAP
0F00
3FC0
7FE0
70F0
F070
FFF0
FFF0
F000
7040
78F0
3FE0
3FC0
0F80
ENDCHAR

STARTCHAR afii10072
ENCODING 214
SWIDTH 709 0
DWIDTH 18 0
BBX 17 13 0 0
BITMAP
F1C780
F1C780
39CE00
39CE00
1DDC00
1FFC00
0FF800
3DDE00
39CE00
79CF00
71C700
F1C780
E1C380
ENDCHAR

STARTCHAR afii10073
ENCODING 215
SWIDTH 497 0
DWIDTH 12 0
BBX 11 13 0 0
BITMAP
1F80
3FC0
79E0
30E0
00E0
01E0
0380
03C0
01E0
60E0
F1E0
7FC0
3F80
ENDCHAR

STARTCHAR afii10074
ENCODING 216
SWIDTH 615 0
DWIDTH 15 0
BBX 12 13 2 0
BITMAP
E0F0
E0F0
E1F0
E3F0
E3F0
E770
EF70
EE70
FC70
FC70
F870
F070
E070
ENDCHAR

STARTCHAR afii10075
ENCODING 217
SWIDTH 610 0
DWIDTH 15 0
BBX 12 18 2 0
BITMAP
70E0
30C0
1FC0
0F00
0000
E070
E0F0
E1F0
E3F0
E3F0
E770
EF70
EE70
FC70
FC70
F870
F070
E070
ENDCHAR

STARTCHAR afii10076
ENCODING 218
SWIDTH 500 0
DWIDTH 13 0
BBX 11 13 2 0
BITMAP
E1C0
E3C0
E780
E700
E600
FE00
FC00
EF00
E700
E780
E380
E3C0
E1E0
ENDCHAR

STARTCHAR afii10077
ENCODING 219
SWIDTH 635 0
DWIDTH 16 0
BBX 14 13 0 0
BITMAP
1FFC
1FFC
1FFC
1C1C
1C1C
1C1C
1C1C
1C1C
1C1C
1C1C
FC1C
FC1C
F81C
ENDCHAR

STARTCHAR afii10078
ENCODING 220
SWIDTH 740 0
DWIDTH 18 0
BBX 15 13 2 0
BITMAP
F01E
F83E
F83E
FC3E
EC76
EC76
EEEE
EEEE
EEEE
E7CE
E7CE
E38E
E38E
ENDCHAR

STARTCHAR afii10079
ENCODING 221
SWIDTH 604 0
DWIDTH 15 0
BBX 11 13 2 0
BITMAP
E0E0
E0E0
E0E0
E0E0
E0E0
FFE0
FFE0
FFE0
E0E0
E0E0
E0E0
E0E0
E0E0
ENDCHAR

STARTCHAR afii10080
ENCODING 222
SWIDTH 611 0
DWIDTH 15 0
BBX 14 13 1 0
BITMAP
0FC0
1FE0
3FF0
7878
703C
F03C
F03C
F03C
7038
7878
3FF0
1FE0
0F80
ENDCHAR

STARTCHAR afii10081
ENCODING 223
SWIDTH 604 0
DWIDTH 15 0
BBX 11 13 2 0
BITMAP
FFE0
FFE0
FFE0
E0E0
E0E0
E0E0
E0E0
E0E0
E0E0
E0E0
E0E0
E0E0
E0E0
ENDCHAR

STARTCHAR afii10082
ENCODING 224
SWIDTH 611 0
DWIDTH 15 0
BBX 13 18 2 -5
BITMAP
E780
EFE0
FFF0
F0F0
F078
E078
E078
E078
F078
F0F0
FFF0
EFE0
E780
E000
E000
E000
E000
E000
ENDCHAR

STARTCHAR afii10083
ENCODING 225
SWIDTH 556 0
DWIDTH 14 0
BBX 12 13 1 0
BITMAP
0F80
3FE0
7FF0
78F0
F040
F000
F000
F000
7070
78F0
7FF0
3FE0
0F80
ENDCHAR

STARTCHAR afii10084
ENCODING 226
SWIDTH 490 0
DWIDTH 12 0
BBX 11 13 1 0
BITMAP
FFE0
FFE0
FFE0
0E00
0E00
0E00
0E00
0E00
0E00
0E00
0E00
0E00
0E00
ENDCHAR

STARTCHAR afii10085
ENCODING 227
SWIDTH 556 0
DWIDTH 14 0
BBX 14 18 0 -5
BITMAP
F03C
7038
7878
3870
3870
3CF0
1CE0
1CE0
1EC0
0FC0
0FC0
0780
0780
0780
0F00
7F00
7E00
7C00
ENDCHAR

STARTCHAR afii10086
ENCODING 228
SWIDTH 875 0
DWIDTH 22 0
BBX 21 22 0 -4
BITMAP
007000
007000
007000
007000
007000
0E73C0
3F77E0
7FFFF0
78F8F0
F0F878
F07078
F07078
F07078
F0F878
78F8F0
7FFFF0
3F77E0
0E7380
007000
007000
007000
007000
ENDCHAR

STARTCHAR afii10087
ENCODING 229
SWIDTH 556 0
DWIDTH 14 0
BBX 14 13 0 0
BITMAP
F878
78F0
3CF0
1EE0
0FC0
0F80
0780
0FC0
1FE0
1DE0
3CF0
7878
F07C
ENDCHAR

STARTCHAR afii10088
ENCODING 230
SWIDTH 615 0
DWIDTH 15 0
BBX 13 16 2 -3
BITMAP
E0E0
E0E0
E0E0
E0E0
E0E0
E0E0
E0E0
E0E0
E0E0
E0E0
FFF8
FFF8
FFF8
0038
0038
0038
ENDCHAR

STARTCHAR afii10089
ENCODING 231
SWIDTH 581 0
DWIDTH 15 0
BBX 11 13 2 0
BITMAP
E0E0
E0E0
E0E0
E0E0
E0E0
F0E0
7FE0
3FE0
00E0
00E0
00E0
00E0
00E0
ENDCHAR

STARTCHAR afii10090
ENCODING 232
SWIDTH 833 0
DWIDTH 21 0
BBX 17 13 2 0
BITMAP
E1C380
E1C380
E1C380
E1C380
E1C380
E1C380
E1C380
E1C380
E1C380
E1C380
FFFF80
FFFF80
FFFF80
ENDCHAR

STARTCHAR afii10091
ENCODING 233
SWIDTH 844 0
DWIDTH 21 0
BBX 19 16 2 -3
BITMAP
E1C380
E1C380
E1C380
E1C380
E1C380
E1C380
E1C380
E1C380
E1C380
E1C380
FFFFE0
FFFFE0
FFFFE0
0000E0
0000E0
0000E0
ENDCHAR

STARTCHAR afii10092
ENCODING 234
SWIDTH 721 0
DWIDTH 18 0
BBX 17 13 0 0
BITMAP
FF0000
FF0000
FF0000
070000
070000
07FE00
07FF00
070F80
070780
070780
070F00
07FF00
07FE00
ENDCHAR

STARTCHAR afii10093
ENCODING 235
SWIDTH 840 0
DWIDTH 21 0
BBX 17 13 2 0
BITMAP
E00380
E00380
E00380
E00380
E00380
FFC380
FFE380
E1F380
E0F380
E0F380
E1E380
FFE380
FFC380
ENDCHAR

STARTCHAR afii10094
ENCODING 236
SWIDTH 598 0
DWIDTH 15 0
BBX 12 13 2 0
BITMAP
E000
E000
E000
E000
E000
FFC0
FFE0
E1F0
E0F0
E0F0
E1E0
FFE0
FFC0
ENDCHAR

STARTCHAR afii10095
ENCODING 237
SWIDTH 552 0
DWIDTH 14 0
BBX 12 13 1 0
BITMAP
1F00
7FC0
FFE0
F0E0
00F0
07F0
07F0
00F0
60E0
F1E0
7FE0
7FC0
1F00
ENDCHAR

STARTCHAR afii10096
ENCODING 238
SWIDTH 849 0
DWIDTH 21 0
BBX 19 13 2 0
BITMAP
E03E00
E0FF80
E1FFC0
E3C3C0
E3C1E0
FFC1E0
FFC1E0
E3C1E0
E3C1C0
E1E3C0
E1FFC0
E0FF80
E03E00
ENDCHAR

STARTCHAR afii10097
ENCODING 239
SWIDTH 583 0
DWIDTH 15 0
BBX 13 13 0 0
BITMAP
1FF8
3FF8
7838
7838
7838
3FF8
07F8
1F38
1E38
3C38
7838
7838
F038
ENDCHAR

STARTCHAR afii61352
ENCODING 240
SWIDTH 1115 0
DWIDTH 28 0
BBX 24 18 2 0
BITMAP
E03800
F03800
F83800
F8387C
FC38FE
FC39EF
EE39C7
EE39C7
EF39C7
E7B9C7
E3B9EF
E3D8FE
E1F87C
E1F800
E0F9FF
E0F9FF
E079FF
E03800
ENDCHAR

STARTCHAR afii10071
ENCODING 241
SWIDTH 556 0
DWIDTH 14 0
BBX 12 18 1 0
BITMAP
39C0
39C0
39C0
0000
0000
0F00
3FC0
7FE0
70E0
F0F0
FFF0
FFF0
F000
F080
78F0
7FE0
3FC0
0F00
ENDCHAR

STARTCHAR afii10099
ENCODING 242
SWIDTH 611 0
DWIDTH 15 0
BBX 13 23 0 -5
BITMAP
3800
3800
FF80
FF80
3800
39E0
3BF0
3FF8
3C78
3838
3838
3838
3838
3838
3838
3838
3838
3838
0038
0038
00F8
01F8
00E0
ENDCHAR

STARTCHAR afii10100
ENCODING 243
SWIDTH 427 0
DWIDTH 11 0
BBX 9 18 2 0
BITMAP
1E00
3C00
3800
7000
0000
FF80
FF80
FF80
E000
E000
E000
E000
E000
E000
E000
E000
E000
E000
ENDCHAR

STARTCHAR afii10101
ENCODING 244
SWIDTH 552 0
DWIDTH 14 0
BBX 12 13 1 0
BITMAP
0F80
3FE0
7FF0
F0E0
F000
FE00
FE00
F000
F060
78F0
7FE0
3FC0
0F80
ENDCHAR

STARTCHAR afii10102
ENCODING 245
SWIDTH 556 0
DWIDTH 14 0
BBX 12 13 0 0
BITMAP
0F80
3FE0
7FF0
70E0
7800
7F80
3FE0
07F0
0070
F070
7FF0
3FE0
0F80
ENDCHAR

STARTCHAR afii10103
ENCODING 246
SWIDTH 278 0
DWIDTH 7 0
BBX 3 18 2 0
BITMAP
E0
E0
E0
00
00
E0
E0
E0
E0
E0
E0
E0
E0
E0
E0
E0
E0
E0
ENDCHAR

STARTCHAR afii10104
ENCODING 247
SWIDTH 278 0
DWIDTH 7 0
BBX 8 18 -1 0
BITMAP
E7
E7
E7
00
00
1C
1C
1C
1C
1C
1C
1C
1C
1C
1C
1C
1C
1C
ENDCHAR

STARTCHAR afii10105
ENCODING 248
SWIDTH 278 0
DWIDTH 7 0
BBX 6 23 -1 -5
BITMAP
1C
1C
1C
00
00
1C
1C
1C
1C
1C
1C
1C
1C
1C
1C
1C
1C
1C
1C
3C
FC
FC
F8
ENDCHAR

STARTCHAR afii10106
ENCODING 249
SWIDTH 963 0
DWIDTH 24 0
BBX 23 13 0 0
BITMAP
1FFC00
1FFC00
1FFC00
1C1C00
1C1C00
1C1FF8
1C1FFC
1C1C3E
1C1C1E
1C1C1E
FC1C3C
FC1FFC
F01FF8
ENDCHAR

STARTCHAR afii10107
ENCODING 250
SWIDTH 895 0
DWIDTH 22 0
BBX 20 13 2 0
BITMAP
E0E000
E0E000
E0E000
E0E000
E0E000
FFFFC0
FFFFE0
E0E1F0
E0E0F0
E0E0F0
E0E1E0
E0FFE0
E0FFC0
ENDCHAR

STARTCHAR afii10108
ENCODING 251
SWIDTH 611 0
DWIDTH 15 0
BBX 13 18 0 0
BITMAP
3800
3800
FF80
FF80
3800
39E0
3BF0
3FF8
3C78
3838
3838
3838
3838
3838
3838
3838
3838
3838
ENDCHAR

STARTCHAR afii10109
ENCODING 252
SWIDTH 500 0
DWIDTH 13 0
BBX 11 18 2 0
BITMAP
0F00
0E00
1C00
1800
0000
E1C0
E3C0
E780
E700
E600
FE00
FC00
EF00
E700
E780
E380
E3C0
E1E0
ENDCHAR

STARTCHAR section
ENCODING 253
SWIDTH 556 0
DWIDTH 14 0
BBX 12 23 1 -5
BITMAP
0F00
3FC0
7FE0
71E0
7080
7800
3E00
7F80
F7C0
E3E0
E0F0
F070
7870
3E70
1FE0
0FC0
03E0
01E0
70E0
78E0
7FE0
3FC0
0F00
ENDCHAR

STARTCHAR afii10110
ENCODING 254
SWIDTH 556 0
DWIDTH 14 0
BBX 14 23 0 -5
BITMAP
1860
1860
0FC0
0780
0000
F03C
7038
7878
3870
3870
3CF0
1CE0
1CE0
1EC0
0FC0
0FC0
0780
0780
0780
0F00
7F00
7E00
7C00
ENDCHAR

STARTCHAR afii10193
ENCODING 255
SWIDTH 604 0
DWIDTH 15 0
BBX 11 18 2 -5
BITMAP
E0E0
E0E0
E0E0
E0E0
E0E0
E0E0
E0E0
E0E0
E0E0
E0E0
FFE0
FFE0
FFE0
0E00
0E00
0E00
0E00
0E00
ENDCHAR
ENDFONT
